<svg xmlns="http://www.w3.org/2000/svg" style="position:absolute;width:0;height:0;overflow:hidden" aria-hidden="true" focusable="false">

  <!-- Action Icons -->
  <symbol id="icon-actions-approve" xmlns="http://www.w3.org/2000/svg" width="16" height="16" fill="none" viewBox="0 0 16 16">
    <g clip-path="url(#a)">
      <path stroke="currentColor" stroke-linecap="round" stroke-linejoin="round" stroke-width="1.333" d="M8 14.667A6.667 6.667 0 1 0 8 1.333a6.667 6.667 0 0 0 0 13.334Z"/>
      <path stroke="currentColor" stroke-linecap="round" stroke-linejoin="round" stroke-width="1.333" d="m6 8 1.333 1.333L10 6.667"/>
    </g>
    <defs>
      <clipPath id="a">
        <path fill="#fff" d="M0 0h16v16H0z"/>
      </clipPath>
    </defs>
  </symbol>

  <symbol id="icon-actions-attach" xmlns="http://www.w3.org/2000/svg" width="16" height="16" fill="none" viewBox="0 0 12 12">
    <g clip-path="url(#a)">
      <path stroke="currentColor" stroke-linecap="round" stroke-linejoin="round" d="M8 3 3.793 7.293a1 1 0 1 0 1.414 1.414l4.207-4.293a2 2 0 0 0-2.828-2.828l-4.19 4.275a3 3 0 1 0 4.243 4.243l4.189-4.276"/>
    </g>
    <defs>
      <clipPath id="a">
        <path fill="#fff" d="M0 0h12v12H0z"/>
      </clipPath>
    </defs>
  </symbol>

  <symbol id="icon-actions-download" xmlns="http://www.w3.org/2000/svg" width="16" height="16" viewBox="0 0 24 24" fill="none">
    <path stroke="currentColor" stroke-width="2" stroke-linecap="round" stroke-linejoin="round" d="M21 15v4a2 2 0 0 1-2 2H5a2 2 0 0 1-2-2v-4"/>
    <polyline stroke="currentColor" stroke-width="2" stroke-linecap="round" stroke-linejoin="round" points="7 10 12 15 17 10"/>
    <line stroke="currentColor" stroke-width="2" stroke-linecap="round" x1="12" y1="15" x2="12" y2="3"/>
  </symbol>

  <symbol id="icon-actions-link" xmlns="http://www.w3.org/2000/svg" width="16" height="16" viewBox="0 0 16 16">
    <path stroke-linecap="round" stroke-linejoin="round" stroke-width="1.333" d="M10 2h4v4M6.667 9.333 14 2m-2 6.667v4A1.334 1.334 0 0 1 10.667 14H3.333A1.334 1.334 0 0 1 2 12.667V5.333A1.333 1.333 0 0 1 3.333 4h4"/>
  </symbol>

  <symbol id="icon-actions-reject" xmlns="http://www.w3.org/2000/svg" width="16" height="16" fill="none" viewBox="0 0 16 16">
    <g clip-path="url(#a)">
      <path stroke="currentColor" stroke-linecap="round" stroke-linejoin="round" stroke-width="1.333" d="M8 14.667A6.667 6.667 0 1 0 8 1.333a6.667 6.667 0 0 0 0 13.334ZM10 6l-4 4m0-4 4 4"/>
    </g>
    <defs>
      <clipPath id="a">
        <path fill="#fff" d="M0 0h16v16H0z"/>
      </clipPath>
    </defs>
  </symbol>

  <symbol id="icon-actions-refresh" xmlns="http://www.w3.org/2000/svg" width="16" height="16" viewBox="0 0 24 24" fill="none">
    <path stroke="currentColor" stroke-width="2" stroke-linecap="round" stroke-linejoin="round" d="M3 12a9 9 0 0 1 9-9 9.75 9.75 0 0 1 6.74 2.74L21 8"/>
    <path stroke="currentColor" stroke-width="2" stroke-linecap="round" stroke-linejoin="round" d="M21 3v5h-5"/>
    <path stroke="currentColor" stroke-width="2" stroke-linecap="round" stroke-linejoin="round" d="M21 12a9 9 0 0 1-9 9 9.75 9.75 0 0 1-6.74-2.74L3 16"/>
    <path stroke="currentColor" stroke-width="2" stroke-linecap="round" stroke-linejoin="round" d="M8 16H3v5"/>
  </symbol>

  <symbol id="icon-actions-trash" xmlns="http://www.w3.org/2000/svg" width="16" height="16" viewBox="0 0 24 24" fill="none" stroke="currentColor" stroke-width="2" stroke-linecap="round" stroke-linejoin="round" class="lucide lucide-trash2-icon lucide-trash-2">
    <path d="M10 11v6"/><path d="M14 11v6"/>
    <path d="M19 6v14a2 2 0 0 1-2 2H7a2 2 0 0 1-2-2V6"/>
    <path d="M3 6h18"/><path d="M8 6V4a2 2 0 0 1 2-2h4a2 2 0 0 1 2 2v2"/>
  </symbol>

  <symbol id="icon-actions-undo" xmlns="http://www.w3.org/2000/svg" width="16" height="16" fill="none" viewBox="0 0 16 16">
    <path stroke="currentColor" stroke-linecap="round" stroke-linejoin="round" stroke-width="1.333" d="M6 9.333 2.665 6l3.333-3.333"/>
    <path stroke="currentColor" stroke-linecap="round" stroke-linejoin="round" stroke-width="1.333" d="M2.666 6h7a3.667 3.667 0 0 1 0 7.333H7.333"/>
  </symbol>

  <symbol id="icon-actions-upload" xmlns="http://www.w3.org/2000/svg" width="16" height="16" viewBox="0 0 24 24" fill="none">
    <path stroke="currentColor" stroke-width="2" stroke-linecap="round" stroke-linejoin="round" d="M21 15v4a2 2 0 0 1-2 2H5a2 2 0 0 1-2-2v-4"/>
    <polyline stroke="currentColor" stroke-width="2" stroke-linecap="round" stroke-linejoin="round" points="17 8 12 3 7 8"/>
    <line stroke="currentColor" stroke-width="2" stroke-linecap="round" x1="12" y1="3" x2="12" y2="15"/>
  </symbol>

  <!-- Decorative icons -->
  <symbol id="icon-deco-arrow" xmlns="http://www.w3.org/2000/svg" width="16" height="16" fill="none" viewBox="0 0 16 16">
    <path stroke="currentColor" stroke-linecap="round" stroke-linejoin="round" stroke-width="1.333" d="M3.334 8h9.333M8 3.333 12.667 8 8 12.667"/>
  </symbol>

  <symbol id="icon-deco-calendar" xmlns="http://www.w3.org/2000/svg" width="14" height="14" viewBox="0 0 14 14">
    <path stroke-linecap="round" stroke-linejoin="round" stroke-width="1.167" d="M4.667 1.167V3.5m4.666-2.333V3.5m1.75-1.167H2.917c-.645 0-1.167.523-1.167 1.167v8.167c0 .644.522 1.166 1.167 1.166h8.166c.645 0 1.167-.522 1.167-1.166V3.5c0-.644-.522-1.167-1.167-1.167Zm-9.333 3.5h10.5"/>
  </symbol>

  <symbol id="icon-deco-checkmark" xmlns="http://www.w3.org/2000/svg" width="16" height="16" fill="none" viewBox="0 0 16 16">
    <path stroke="currentColor" stroke-linecap="round" stroke-linejoin="round" stroke-width="1.333" d="m13.333 4-7.334 7.333L2.666 8"/>
  </symbol>

  <symbol id="icon-deco-clock" xmlns="http://www.w3.org/2000/svg" width="14" height="14" viewBox="0 0 14 14">
    <path stroke-linecap="round" stroke-linejoin="round" stroke-width="1.167" d="M7 3.5V7l2.333 1.167"/>
    <path stroke-linecap="round" stroke-linejoin="round" stroke-width="1.167" d="M7 12.833A5.833 5.833 0 1 0 7 1.167a5.833 5.833 0 0 0 0 11.666Z"/>
  </symbol>

  <symbol id="icon-deco-control-details" xmlns="http://www.w3.org/2000/svg" width="16" height="16" viewBox="0 0 16 16">
    <g clip-path="url(#a)">
      <path stroke-linecap="round" stroke-linejoin="round" stroke-width="1.333" d="M14.666 8h-1.653a1.333 1.333 0 0 0-1.287.973l-1.566 5.574a.167.167 0 0 1-.32 0L6.16 1.453a.167.167 0 0 0-.32 0L4.273 7.027A1.333 1.333 0 0 1 2.993 8h-1.66"/>
    </g>
    <defs>
      <clipPath id="a">
        <path fill="#fff" d="M0 0h16v16H0z"/>
      </clipPath>
    </defs>
  </symbol>

  <symbol id="icon-deco-documents" xmlns="http://www.w3.org/2000/svg" width="16" height="16" viewBox="0 0 16 16">
    <path stroke-linecap="round" stroke-linejoin="round" stroke-width="1.333" d="M4 14.667a1.333 1.333 0 0 1-1.333-1.334V2.667A1.333 1.333 0 0 1 4 1.333h5.334a1.6 1.6 0 0 1 1.136.471l2.392 2.392a1.601 1.601 0 0 1 .472 1.137v8A1.333 1.333 0 0 1 12 14.667H4Z"/>
    <path stroke-linecap="round" stroke-linejoin="round" stroke-width="1.333" d="M9.333 1.333v3.334a.667.667 0 0 0 .667.666h3.333M6.666 6H5.333m5.333 2.667H5.333m5.333 2.666H5.333"/>
  </symbol>

  <symbol id="icon-deco-exclamation" xmlns="http://www.w3.org/2000/svg" width="14" height="14" viewBox="0 0 14 14">
    <path stroke-linecap="round" stroke-linejoin="round" stroke-width="1.167" d="M7 12.833A5.833 5.833 0 1 0 7 1.167a5.833 5.833 0 0 0 0 11.666Zm0-8.166V7m0 2.333h.006"/>
  </symbol>

  <symbol id="icon-deco-eye" xmlns="http://www.w3.org/2000/svg" width="14" height="14" fill="none" viewBox="0 0 14 14">
    <path stroke="currentColor" stroke-linecap="round" stroke-linejoin="round" stroke-width="1.167" d="M1.202 7.203a.583.583 0 0 1 0-.406 6.27 6.27 0 0 1 11.595 0 .584.584 0 0 1 0 .406 6.27 6.27 0 0 1-11.595 0Z"/>
    <path stroke="currentColor" stroke-linecap="round" stroke-linejoin="round" stroke-width="1.167" d="M7 8.75a1.75 1.75 0 1 0 0-3.5 1.75 1.75 0 0 0 0 3.5Z"/>
  </symbol>

  <symbol id="icon-deco-graph" xmlns="http://www.w3.org/2000/svg" width="16" height="16" fill="none" viewBox="0 0 16 16">
    <path stroke="currentColor" stroke-linecap="round" stroke-linejoin="round" stroke-width="1.333" d="M2 2v10.667A1.333 1.333 0 0 0 3.333 14H14m-2-2.667V6m-3.334 5.333v-8m-3.332 8v-2"/>
  </symbol>


  <symbol id="icon-deco-history" xmlns="http://www.w3.org/2000/svg" width="16" height="16" viewBox="0 0 20 20">
    <path stroke-linecap="round" stroke-linejoin="round" stroke-width="1.667" d="M2.5 10A7.5 7.5 0 1 0 10 2.5a8.125 8.125 0 0 0-5.617 2.283L2.5 6.667"/>
    <path stroke-linecap="round" stroke-linejoin="round" stroke-width="1.667" d="M2.5 2.5v4.167h4.167M10 5.833V10l3.333 1.667"/>
  </symbol>

  <symbol id="icon-deco-not-started" xmlns="http://www.w3.org/2000/svg" width="14" height="14" fill="none" viewBox="0 0 14 14">
    <path stroke="currentColor" stroke-linecap="round" stroke-linejoin="round" stroke-width="1.167" d="M7 12.833A5.833 5.833 0 1 0 7 1.167a5.833 5.833 0 0 0 0 11.666Z"/>
  </symbol>

  <symbol id="icon-deco-eye" xmlns="http://www.w3.org/2000/svg" width="14" height="14" viewBox="0 0 14 14" fill="none">
    <path stroke="currentColor" stroke-linecap="round" stroke-linejoin="round" stroke-width="1.167" d="M1.167 7s2.12-3.5 5.833-3.5S12.833 7 12.833 7s-2.12 3.5-5.833 3.5S1.167 7 1.167 7Z"/>
    <circle cx="7" cy="7" r="1.75" stroke="currentColor" stroke-width="1.167"/>
  </symbol>

  <symbol id="icon-deco-start" xmlns="http://www.w3.org/2000/svg" width="14" height="14" fill="none" viewBox="0 0 14 14">
    <path fill="#6A7282" stroke="currentColor" stroke-linecap="round" stroke-linejoin="round" stroke-width="1.167" d="M2.916 2.917a1.167 1.167 0 0 1 1.755-1.008l6.998 4.082a1.166 1.166 0 0 1 .002 2.017l-7 4.083a1.165 1.165 0 0 1-1.755-1.008V2.917Z"/>
  </symbol>


  <symbol id="icon-deco-user" xmlns="http://www.w3.org/2000/svg" width="14" height="14" viewBox="0 0 14 14">
    <path stroke-linecap="round" stroke-linejoin="round" stroke-width="1.167" d="M11.084 12.25v-1.167A2.333 2.333 0 0 0 8.75 8.75h-3.5a2.333 2.333 0 0 0-2.333 2.333v1.167M7 6.417A2.333 2.333 0 1 0 7 1.75a2.333 2.333 0 0 0 0 4.667Z"/>
  </symbol>

</svg>
