<?xml version="1.0" encoding="UTF-8"?>
<svg version="1.1" xmlns="http://www.w3.org/2000/svg" width="512" height="512">
<path d="M0 0 C0.83580534 -0.00581376 1.67161068 -0.01162753 2.53274345 -0.01761746 C5.34015508 -0.03224329 8.14669596 -0.01832019 10.95410156 -0.00457001 C12.98441007 -0.00917789 15.01471525 -0.01553005 17.04501343 -0.02347898 C22.62953845 -0.04021076 28.21379082 -0.03190836 33.79831696 -0.01953411 C39.8188514 -0.01050172 45.83933823 -0.02444435 51.85986328 -0.0354538 C62.97410283 -0.05223318 74.08826718 -0.05074998 85.20250726 -0.03980792 C95.4696496 -0.02974935 105.73676 -0.02711718 116.00390625 -0.0318985 C117.02510539 -0.03235681 117.02510539 -0.03235681 118.06693482 -0.03282438 C120.83045758 -0.03406971 123.59398033 -0.03534331 126.35750306 -0.03666343 C152.28635849 -0.04890198 178.21515843 -0.03780156 204.1440053 -0.01627585 C227.18490045 0.00270687 250.22570718 0.00100837 273.26660156 -0.01811981 C299.1477494 -0.03953406 325.02884819 -0.04803406 350.91000366 -0.03567076 C353.66851806 -0.03438787 356.42703246 -0.03313651 359.18554688 -0.0318985 C359.86477337 -0.03158219 360.54399987 -0.03126588 361.24380898 -0.03093999 C371.50500068 -0.02638832 381.76615696 -0.03171449 392.02734375 -0.04181671 C403.69370525 -0.05324501 415.35998258 -0.05002744 427.02633476 -0.02869374 C432.98146366 -0.01816367 438.93641286 -0.01409491 444.89154053 -0.02729034 C450.33938626 -0.03917939 455.78688514 -0.03270918 461.23469925 -0.01138014 C463.20903809 -0.00689928 465.18340604 -0.00921341 467.15772629 -0.01888329 C469.83538893 -0.03099546 472.51185366 -0.01862507 475.18945312 0 C475.96131392 -0.00936466 476.73317471 -0.01872933 477.52842522 -0.02837777 C482.69969211 0.0438285 485.60014057 1.26169119 489.59472656 4.50336456 C492.93070718 8.10271208 493.92501069 11.02003359 494.21972656 15.81586456 C493.93752388 22.16970075 491.5864826 25.71325732 487.59472656 30.50336456 C486.75941406 31.51398956 485.92410156 32.52461456 485.06347656 33.56586456 C483.19203702 35.80558204 481.30052958 38.02653634 479.39550781 40.23773956 C475.36769163 44.91555815 471.48919185 49.71451032 467.59472656 54.50336456 C464.59873308 58.173315 461.59832985 61.83964059 458.59472656 65.50336456 C458.07217285 66.14080597 457.54961914 66.77824738 457.01123047 67.43500519 C450.96111668 74.8105795 444.90172906 82.17523833 438.71972656 89.44086456 C435.02052617 93.78968385 431.4122749 98.19837491 427.86425781 102.67133331 C423.1219154 108.58905835 418.26910699 114.41745323 413.44140625 120.26557159 C411.06914605 123.1402592 408.69978519 126.01732664 406.33081055 128.89472198 C405.17167376 130.30260617 404.01233066 131.71032054 402.8527832 133.11786652 C399.89553182 136.70766294 396.94049055 140.29924296 393.98925781 143.89398956 C388.60745556 150.44552646 383.21363838 156.98287224 377.71972656 163.44086456 C374.02056607 167.7897173 370.41227562 172.19837399 366.86425781 176.67133331 C362.1219154 182.58905835 357.26910699 188.41745323 352.44140625 194.26557159 C350.06914605 197.1402592 347.69978519 200.01732664 345.33081055 202.89472198 C344.17167376 204.30260617 343.01233066 205.71032054 341.8527832 207.11786652 C338.89553182 210.70766294 335.94049055 214.29924296 332.98925781 217.89398956 C331.79539351 219.34723461 330.60138444 220.80036074 329.40722656 222.25336456 C328.82851807 222.95767609 328.24980957 223.66198761 327.65356445 224.38764191 C323.16511586 229.83840065 318.60331052 235.22220538 313.99707031 240.57367706 C313.20429688 241.54047394 312.41152344 242.50727081 311.59472656 243.50336456 C310.73279694 244.40554718 309.87086731 245.3077298 308.9828186 246.23725128 C304.99287249 251.92401213 305.91941734 259.03988263 305.98291016 265.69086456 C305.97936597 267.23717643 305.97358493 268.78348453 305.96574402 270.32978058 C305.95359314 273.65018829 305.95699874 276.97008159 305.97257614 280.29047394 C305.99694507 285.54387577 305.98537686 290.79682954 305.96890259 296.05023956 C305.9444346 305.30648819 305.95019945 314.56253201 305.96270752 323.81879425 C305.98130432 337.75329557 305.97640927 351.68775783 305.94267333 365.62223053 C305.93117731 370.84135528 305.9355736 376.06015236 305.9526937 381.27925873 C305.96060605 384.5289503 305.95633103 387.77854702 305.94898415 391.02823639 C305.94817576 392.53143702 305.95250059 394.03465083 305.96242714 395.53781891 C306.06268569 411.49588149 306.06268569 411.49588149 301.11645508 417.21161652 C294.07566103 422.23845115 286.27845113 425.89762543 278.53222656 429.69086456 C276.9829585 430.45698725 275.43397051 431.22367655 273.88525391 431.99091339 C265.02409034 436.37152359 256.12539533 440.66913641 247.18530273 444.8864212 C234.12783971 451.0882243 221.24574972 457.65561401 208.33349609 464.15253448 C207.3857431 464.62852585 206.43799011 465.10451721 205.46151733 465.59493256 C203.65873432 466.50043422 201.85679682 467.4076217 200.05581665 468.3167038 C199.24849091 468.72199814 198.44116516 469.12729248 197.609375 469.54486847 C196.90375427 469.90029724 196.19813354 470.25572601 195.47113037 470.62192535 C190.16247181 473.11566353 184.1616356 473.62054739 178.52441406 471.85492706 C173.95379274 469.53993704 171.46662392 466.14359574 169.59472656 461.50336456 C169.07142392 458.56025332 169.07990492 455.7016292 169.12957764 452.71849823 C169.12772091 451.85794337 169.12586419 450.9973885 169.1239512 450.11075622 C169.12239 447.23954715 169.14919519 444.36931333 169.17578125 441.49823761 C169.18014585 439.43464203 169.18263614 437.37104177 169.18339539 435.30744171 C169.18837859 430.8690384 169.20530596 426.43089736 169.23113251 421.99256706 C169.27060507 414.96997939 169.27539803 407.94763262 169.27398682 400.92494965 C169.27525684 380.95721156 169.32302744 360.98972439 169.40576172 341.02216339 C169.45116686 329.98986784 169.46780138 318.95789427 169.45378613 307.9255107 C169.4466553 300.94892577 169.47531053 293.9737018 169.53070116 286.99734724 C169.55683622 282.65042876 169.54947828 278.30403754 169.53281593 273.95709229 C169.53178751 271.94716069 169.5443901 269.93716688 169.57191277 267.92742348 C170.01338527 255.40734768 170.01338527 255.40734768 164.71783447 244.44557953 C163.37666219 243.09764325 162.00511456 241.77870021 160.59472656 240.50336456 C159.60817145 239.36226876 158.63742068 238.20717402 157.68847656 237.03461456 C156.83253906 236.03430206 155.97660156 235.03398956 155.09472656 234.00336456 C151.26803275 229.50970458 147.53250473 224.95992706 143.86425781 220.33539581 C139.12647473 214.42336013 134.27787292 208.60104001 129.45458984 202.75873566 C127.62214783 200.53661708 125.79334321 198.31156105 123.96582031 196.08539581 C118.59239677 189.54249696 113.20586576 183.01472031 107.71972656 176.56586456 C104.02056607 172.21701182 100.41227562 167.80835513 96.86425781 163.33539581 C92.12647473 157.42336013 87.27787292 151.60104001 82.45458984 145.75873566 C80.62214783 143.53661708 78.79334321 141.31156105 76.96582031 139.08539581 C71.59239677 132.54249696 66.20586576 126.01472031 60.71972656 119.56586456 C57.02056607 115.21701182 53.41227562 110.80835513 49.86425781 106.33539581 C45.12647473 100.42336013 40.27787292 94.60104001 35.45458984 88.75873566 C33.62214783 86.53661708 31.79334321 84.31156105 29.96582031 82.08539581 C24.59239677 75.54249696 19.20586576 69.01472031 13.71972656 62.56586456 C10.03120498 58.22951927 6.42893068 53.8373677 2.89941406 49.37055206 C1.01076519 47.02094482 -0.90226215 44.69935306 -2.83496094 42.38617706 C-3.76151489 41.27387726 -3.76151489 41.27387726 -4.70678711 40.13910675 C-5.93213217 38.67027888 -7.1612579 37.20459379 -8.39477539 35.74262238 C-19.31329232 22.62999035 -19.31329232 22.62999035 -18.82324219 13.05414581 C-18.00281858 8.04726155 -15.61411608 5.4843606 -11.78216553 2.3746686 C-7.74047465 0.13496646 -4.49658824 -0.05455523 0 0 Z M31.59472656 32.50336456 C35.38880168 37.56213139 39.13273831 42.39893775 43.28222656 47.12836456 C47.33768616 51.7998753 51.25022918 56.54561795 55.03222656 61.44086456 C59.48620027 67.19824239 64.17786235 72.70712192 68.97167969 78.1832962 C72.55868005 82.28707686 76.02041177 86.46086363 79.39550781 90.74164581 C82.29588137 94.38385559 85.25675606 97.97450731 88.21972656 101.56586456 C88.82034912 102.29402374 89.42097168 103.02218292 90.03979492 103.77240753 C91.27569541 105.27028031 92.51178135 106.76800008 93.74804688 108.26557159 C96.12030708 111.1402592 98.48966793 114.01732664 100.85864258 116.89472198 C102.01777937 118.30260617 103.17712246 119.71032054 104.33666992 121.11786652 C107.29392131 124.70766294 110.24896257 128.29924296 113.20019531 131.89398956 C118.58199756 138.44552646 123.97581474 144.98287224 129.46972656 151.44086456 C133.16888706 155.7897173 136.7771775 160.19837399 140.32519531 164.67133331 C145.06297839 170.583369 149.9115802 176.40568911 154.73486328 182.24799347 C156.56730529 184.47011205 158.39610992 186.69516808 160.22363281 188.92133331 C165.59705688 195.46423279 170.98361213 201.99198707 176.46972656 208.44086456 C180.28804002 212.93012986 184.03008155 217.47003878 187.68066406 222.09711456 C189.01954976 223.78028516 190.38094123 225.44568684 191.75878906 227.09711456 C192.46777344 227.95305206 193.17675781 228.80898956 193.90722656 229.69086456 C194.54273438 230.44754425 195.17824219 231.20422394 195.83300781 231.98383331 C199.82216964 237.68895389 201.04018302 242.62795803 200.99345398 249.52031708 C201.00342422 250.68697563 201.00342422 250.68697563 201.01359588 251.87720305 C201.03215776 254.46748793 201.02962523 257.05730813 201.02709961 259.64765167 C201.03612094 261.51073607 201.04644907 263.37381453 201.0579834 265.23688507 C201.08553592 270.28384599 201.09483557 275.33069422 201.10083747 280.37772059 C201.11022564 285.6561839 201.13642943 290.9345632 201.1608429 296.21297455 C201.20449931 306.20356913 201.23305158 316.19414739 201.25616628 326.18480831 C201.28322251 337.56086063 201.32713379 348.93682839 201.372455 360.31282032 C201.46528902 383.70962255 201.5369755 407.10645129 201.59472656 430.50336456 C205.4250257 429.25172666 209.01024947 427.91880317 212.61181641 426.10834503 C214.03522842 425.39652573 214.03522842 425.39652573 215.48739624 424.67032623 C216.49992462 424.15890076 217.512453 423.64747528 218.55566406 423.12055206 C219.61902985 422.58745422 220.68239563 422.05435638 221.77798462 421.50510406 C225.17713379 419.79994834 228.57346936 418.08927193 231.96972656 416.37836456 C234.21563414 415.25038963 236.46172613 414.12278181 238.70800781 412.99555206 C242.90105575 410.89090226 247.09292123 408.78393242 251.28369141 406.67475128 C258.71384079 402.93723843 266.15438712 399.22053686 273.59472656 395.50336456 C273.59830909 394.32253123 273.59830909 394.32253123 273.601964 393.11784267 C273.66112407 373.95471643 273.73668065 354.79171887 273.83044147 335.62872982 C273.87538914 326.36161118 273.9148062 317.09453088 273.94116211 307.82733917 C273.9641505 299.74917323 273.99755797 291.67112873 274.04342812 283.59305912 C274.06734899 279.31657016 274.08608521 275.0402014 274.09234047 270.76364708 C274.09839648 266.7359378 274.11841484 262.708536 274.14900208 258.68094063 C274.15777405 257.2051876 274.16150662 255.72939437 274.15973473 254.25361633 C274.15050086 243.01118093 275.14779855 236.7073998 282.78222656 228.19086456 C283.77681667 227.04989588 284.770299 225.90796064 285.76269531 224.76508331 C286.24786621 224.20998077 286.73303711 223.65487823 287.23291016 223.08295441 C289.08234089 220.9377739 290.84195148 218.72790105 292.59472656 216.50336456 C295.68546173 212.60194476 298.86851162 208.79245105 302.09472656 205.00336456 C305.91988353 200.50836743 309.65690069 195.9599872 313.32519531 191.33539581 C318.06297839 185.42336013 322.9115802 179.60104001 327.73486328 173.75873566 C329.56730529 171.53661708 331.39610992 169.31156105 333.22363281 167.08539581 C338.59705636 160.54249696 343.98358736 154.01472031 349.46972656 147.56586456 C353.16888706 143.21701182 356.7771775 138.80835513 360.32519531 134.33539581 C365.06753772 128.41767077 369.92034614 122.5892759 374.74804688 116.74115753 C377.12030708 113.86646993 379.48966793 110.98940249 381.85864258 108.11200714 C383.01777937 106.70412295 384.17712246 105.29640859 385.33666992 103.88886261 C388.29392131 100.29906619 391.24896257 96.70748617 394.20019531 93.11273956 C399.58199756 86.56120266 404.97581474 80.02385688 410.46972656 73.56586456 C414.15874684 69.22893299 417.75948684 64.8343609 421.29394531 60.37055206 C424.974438 55.78399581 428.73562353 51.26354161 432.49633789 46.74262238 C433.35328247 45.70766632 433.35328247 45.70766632 434.22753906 44.65180206 C434.73172363 44.04513702 435.2359082 43.43847198 435.75537109 42.81342316 C438.44462026 39.4359775 441.00433816 35.95721577 443.59472656 32.50336456 C307.63472656 32.50336456 171.67472656 32.50336456 31.59472656 32.50336456 Z " fill="#000000" transform="translate(18.4052734375,19.49663543701172)"/>
</svg>
